<?xml version="1.0" encoding="UTF-8" standalone="no"?>
<!-- Created with Inkscape (http://www.inkscape.org/) -->

<svg
   xmlns:dc="http://purl.org/dc/elements/1.1/"
   xmlns:cc="http://creativecommons.org/ns#"
   xmlns:rdf="http://www.w3.org/1999/02/22-rdf-syntax-ns#"
   xmlns:svg="http://www.w3.org/2000/svg"
   xmlns="http://www.w3.org/2000/svg"
   xmlns:sodipodi="http://sodipodi.sourceforge.net/DTD/sodipodi-0.dtd"
   xmlns:inkscape="http://www.inkscape.org/namespaces/inkscape"
   width="744.09448819"
   height="1052.3622047"
   id="svg2"
   version="1.1"
   inkscape:version="0.48.2 r9819"
   inkscape:export-filename="C:\Users\samuel\Documents\programs\IROOTNEW\icons\others\fit2.png"
   inkscape:export-xdpi="500.16373"
   inkscape:export-ydpi="500.16373"
   sodipodi:docname="New document 1">
  <defs
     id="defs4" />
  <sodipodi:namedview
     id="base"
     pagecolor="#ffffff"
     bordercolor="#666666"
     borderopacity="1.0"
     inkscape:pageopacity="0.0"
     inkscape:pageshadow="2"
     inkscape:zoom="0.98994949"
     inkscape:cx="320.22316"
     inkscape:cy="600.27557"
     inkscape:document-units="px"
     inkscape:current-layer="layer1-9"
     showgrid="false"
     inkscape:window-width="1920"
     inkscape:window-height="1005"
     inkscape:window-x="-9"
     inkscape:window-y="-9"
     inkscape:window-maximized="1" />
  <metadata
     id="metadata7">
    <rdf:RDF>
      <cc:Work
         rdf:about="">
        <dc:format>image/svg+xml</dc:format>
        <dc:type
           rdf:resource="http://purl.org/dc/dcmitype/StillImage" />
        <dc:title></dc:title>
      </cc:Work>
    </rdf:RDF>
  </metadata>
  <g
     inkscape:label="Layer 1"
     inkscape:groupmode="layer"
     id="layer1">
    <g
       transform="translate(36.944913,43.723739)"
       id="layer1-9"
       inkscape:label="Layer 1">
      <path
         sodipodi:nodetypes="cssc"
         inkscape:connector-curvature="0"
         id="path3799"
         d="M 630.83096,482.45787 C 560.5745,596.83384 432.95278,706.04217 396.8971,579.56578 360.84139,453.08939 333.2288,-27.972266 259.86131,356.47451 178.51766,782.7166 2.0452706,746.82241 2.0452706,746.82241"
         style="fill:none;stroke:#808080;stroke-width:32.34368896;stroke-linecap:butt;stroke-linejoin:miter;stroke-miterlimit:4;stroke-opacity:1;stroke-dasharray:none" />
      <path
         inkscape:transform-center-y="-17.31275"
         inkscape:transform-center-x="25.969132"
         transform="matrix(2.0276577,0,0,2.0276577,-129.56645,182.54277)"
         d="m 98.994947,268.70749 a 15.152288,15.152288 0 1 1 -30.304576,0 15.152288,15.152288 0 1 1 30.304576,0 z"
         sodipodi:ry="15.152288"
         sodipodi:rx="15.152288"
         sodipodi:cy="268.70749"
         sodipodi:cx="83.842659"
         id="path3868"
         style="fill:#000000;stroke:#000000;stroke-width:22.64599991;stroke-miterlimit:4;stroke-opacity:1;stroke-dasharray:none"
         sodipodi:type="arc" />
      <path
         inkscape:transform-center-y="-17.312745"
         inkscape:transform-center-x="25.969133"
         transform="matrix(2.0276577,0,0,2.0276577,21.591993,26.727932)"
         d="m 98.994947,268.70749 a 15.152288,15.152288 0 1 1 -30.304576,0 15.152288,15.152288 0 1 1 30.304576,0 z"
         sodipodi:ry="15.152288"
         sodipodi:rx="15.152288"
         sodipodi:cy="268.70749"
         sodipodi:cx="83.842659"
         id="path3868-0"
         style="fill:#000000;stroke:#000000;stroke-width:22.64599991;stroke-miterlimit:4;stroke-opacity:1;stroke-dasharray:none"
         sodipodi:type="arc" />
      <path
         inkscape:transform-center-y="-17.312744"
         inkscape:transform-center-x="25.969137"
         transform="matrix(2.0276577,0,0,2.0276577,134.12491,-313.75632)"
         d="m 98.994947,268.70749 a 15.152288,15.152288 0 1 1 -30.304576,0 15.152288,15.152288 0 1 1 30.304576,0 z"
         sodipodi:ry="15.152288"
         sodipodi:rx="15.152288"
         sodipodi:cy="268.70749"
         sodipodi:cx="83.842659"
         id="path3868-8"
         style="fill:#000000;stroke:#000000;stroke-width:22.64599991;stroke-miterlimit:4;stroke-opacity:1;stroke-dasharray:none"
         sodipodi:type="arc" />
      <path
         inkscape:transform-center-y="-150.0439"
         inkscape:transform-center-x="53.682814"
         transform="matrix(2.0276577,0,0,2.0276577,203.37596,-111.77414)"
         d="m 98.994947,268.70749 a 15.152288,15.152288 0 1 1 -30.304576,0 15.152288,15.152288 0 1 1 30.304576,0 z"
         sodipodi:ry="15.152288"
         sodipodi:rx="15.152288"
         sodipodi:cy="268.70749"
         sodipodi:cx="83.842659"
         id="path3868-7"
         style="fill:#000000;stroke:#000000;stroke-width:22.64599991;stroke-miterlimit:4;stroke-opacity:1;stroke-dasharray:none"
         sodipodi:type="arc" />
      <path
         inkscape:transform-center-y="-17.312746"
         inkscape:transform-center-x="25.969126"
         transform="matrix(2.0276577,0,0,2.0276577,269.74154,84.437122)"
         d="m 98.994947,268.70749 a 15.152288,15.152288 0 1 1 -30.304576,0 15.152288,15.152288 0 1 1 30.304576,0 z"
         sodipodi:ry="15.152288"
         sodipodi:rx="15.152288"
         sodipodi:cy="268.70749"
         sodipodi:cx="83.842659"
         id="path3868-4"
         style="fill:#000000;stroke:#000000;stroke-width:22.64599991;stroke-miterlimit:4;stroke-opacity:1;stroke-dasharray:none"
         sodipodi:type="arc" />
      <path
         inkscape:transform-center-y="-17.312745"
         inkscape:transform-center-x="25.969134"
         transform="matrix(2.0276577,0,0,2.0276577,422.67088,-39.637643)"
         d="m 98.994947,268.70749 a 15.152288,15.152288 0 1 1 -30.304576,0 15.152288,15.152288 0 1 1 30.304576,0 z"
         sodipodi:ry="15.152288"
         sodipodi:rx="15.152288"
         sodipodi:cy="268.70749"
         sodipodi:cx="83.842659"
         id="path3868-5"
         style="fill:#000000;stroke:#000000;stroke-width:22.64599991;stroke-miterlimit:4;stroke-opacity:1;stroke-dasharray:none"
         sodipodi:type="arc" />
    </g>
  </g>
</svg>
